<svg xmlns="http://www.w3.org/2000/svg" width="600" height="630" viewBox="0 0 600 630">
<rect width="100%" height="100%" fill="#07131d"/>
<style>text{font-family:Inter,Segoe UI,sans-serif;fill:#dceaf5}.muted{fill:#83a0b3}.small{font-size:11px}.value{font-size:15px;font-weight:700}</style>
<text x="28" y="35" font-size="22" font-weight="700">Held-out profile confusion matrix</text>
<text x="28" y="58" class="muted small">Rows: actual class · columns: predicted class · 14,476 test samples</text>
<text x="350.0" y="82" text-anchor="middle" class="muted small">PREDICTED</text>
<text x="28" y="330.0" transform="rotate(-90 28 330.0)" text-anchor="middle" class="muted small">ACTUAL</text>
<text x="186.0" y="113" text-anchor="middle" class="small" transform="rotate(-28 186.0 113)">Cooling</text>
<text x="133" y="170.0" text-anchor="end" class="small">Cooling</text>
<text x="268.0" y="113" text-anchor="middle" class="small" transform="rotate(-28 268.0 113)">Healthy</text>
<text x="133" y="252.0" text-anchor="end" class="small">Healthy</text>
<text x="350.0" y="113" text-anchor="middle" class="small" transform="rotate(-28 350.0 113)">Ignition</text>
<text x="133" y="334.0" text-anchor="end" class="small">Ignition</text>
<text x="432.0" y="113" text-anchor="middle" class="small" transform="rotate(-28 432.0 113)">Lubrication</text>
<text x="133" y="416.0" text-anchor="end" class="small">Lubrication</text>
<text x="514.0" y="113" text-anchor="middle" class="small" transform="rotate(-28 514.0 113)">Valve wear</text>
<text x="133" y="498.0" text-anchor="end" class="small">Valve wear</text>
<rect x="147" y="127" width="78" height="78" rx="4" fill="#35d0ad" fill-opacity="0.335"/>
<text x="186.0" y="164.0" text-anchor="middle" class="value">1867</text>
<text x="186.0" y="183.0" text-anchor="middle" class="muted small">96.8%</text>
<rect x="229" y="127" width="78" height="78" rx="4" fill="#ff796e" fill-opacity="0.127"/>
<text x="268.0" y="164.0" text-anchor="middle" class="value">57</text>
<text x="268.0" y="183.0" text-anchor="middle" class="muted small">3.0%</text>
<rect x="311" y="127" width="78" height="78" rx="4" fill="#ff796e" fill-opacity="0.120"/>
<text x="350.0" y="164.0" text-anchor="middle" class="value">0</text>
<text x="350.0" y="183.0" text-anchor="middle" class="muted small">0.0%</text>
<rect x="393" y="127" width="78" height="78" rx="4" fill="#ff796e" fill-opacity="0.120"/>
<text x="432.0" y="164.0" text-anchor="middle" class="value">4</text>
<text x="432.0" y="183.0" text-anchor="middle" class="muted small">0.2%</text>
<rect x="475" y="127" width="78" height="78" rx="4" fill="#ff796e" fill-opacity="0.120"/>
<text x="514.0" y="164.0" text-anchor="middle" class="value">0</text>
<text x="514.0" y="183.0" text-anchor="middle" class="muted small">0.0%</text>
<rect x="147" y="209" width="78" height="78" rx="4" fill="#ff796e" fill-opacity="0.120"/>
<text x="186.0" y="246.0" text-anchor="middle" class="value">0</text>
<text x="186.0" y="265.0" text-anchor="middle" class="muted small">0.0%</text>
<rect x="229" y="209" width="78" height="78" rx="4" fill="#35d0ad" fill-opacity="0.900"/>
<text x="268.0" y="246.0" text-anchor="middle" class="value">6764</text>
<text x="268.0" y="265.0" text-anchor="middle" class="muted small">100.0%</text>
<rect x="311" y="209" width="78" height="78" rx="4" fill="#ff796e" fill-opacity="0.120"/>
<text x="350.0" y="246.0" text-anchor="middle" class="value">0</text>
<text x="350.0" y="265.0" text-anchor="middle" class="muted small">0.0%</text>
<rect x="393" y="209" width="78" height="78" rx="4" fill="#ff796e" fill-opacity="0.120"/>
<text x="432.0" y="246.0" text-anchor="middle" class="value">0</text>
<text x="432.0" y="265.0" text-anchor="middle" class="muted small">0.0%</text>
<rect x="475" y="209" width="78" height="78" rx="4" fill="#ff796e" fill-opacity="0.120"/>
<text x="514.0" y="246.0" text-anchor="middle" class="value">0</text>
<text x="514.0" y="265.0" text-anchor="middle" class="muted small">0.0%</text>
<rect x="147" y="291" width="78" height="78" rx="4" fill="#ff796e" fill-opacity="0.120"/>
<text x="186.0" y="328.0" text-anchor="middle" class="value">0</text>
<text x="186.0" y="347.0" text-anchor="middle" class="muted small">0.0%</text>
<rect x="229" y="291" width="78" height="78" rx="4" fill="#ff796e" fill-opacity="0.125"/>
<text x="268.0" y="328.0" text-anchor="middle" class="value">41</text>
<text x="268.0" y="347.0" text-anchor="middle" class="muted small">2.1%</text>
<rect x="311" y="291" width="78" height="78" rx="4" fill="#35d0ad" fill-opacity="0.338"/>
<text x="350.0" y="328.0" text-anchor="middle" class="value">1887</text>
<text x="350.0" y="347.0" text-anchor="middle" class="muted small">97.9%</text>
<rect x="393" y="291" width="78" height="78" rx="4" fill="#ff796e" fill-opacity="0.120"/>
<text x="432.0" y="328.0" text-anchor="middle" class="value">0</text>
<text x="432.0" y="347.0" text-anchor="middle" class="muted small">0.0%</text>
<rect x="475" y="291" width="78" height="78" rx="4" fill="#ff796e" fill-opacity="0.120"/>
<text x="514.0" y="328.0" text-anchor="middle" class="value">0</text>
<text x="514.0" y="347.0" text-anchor="middle" class="muted small">0.0%</text>
<rect x="147" y="373" width="78" height="78" rx="4" fill="#ff796e" fill-opacity="0.120"/>
<text x="186.0" y="410.0" text-anchor="middle" class="value">0</text>
<text x="186.0" y="429.0" text-anchor="middle" class="muted small">0.0%</text>
<rect x="229" y="373" width="78" height="78" rx="4" fill="#ff796e" fill-opacity="0.128"/>
<text x="268.0" y="410.0" text-anchor="middle" class="value">67</text>
<text x="268.0" y="429.0" text-anchor="middle" class="muted small">3.5%</text>
<rect x="311" y="373" width="78" height="78" rx="4" fill="#ff796e" fill-opacity="0.120"/>
<text x="350.0" y="410.0" text-anchor="middle" class="value">0</text>
<text x="350.0" y="429.0" text-anchor="middle" class="muted small">0.0%</text>
<rect x="393" y="373" width="78" height="78" rx="4" fill="#35d0ad" fill-opacity="0.335"/>
<text x="432.0" y="410.0" text-anchor="middle" class="value">1861</text>
<text x="432.0" y="429.0" text-anchor="middle" class="muted small">96.5%</text>
<rect x="475" y="373" width="78" height="78" rx="4" fill="#ff796e" fill-opacity="0.120"/>
<text x="514.0" y="410.0" text-anchor="middle" class="value">0</text>
<text x="514.0" y="429.0" text-anchor="middle" class="muted small">0.0%</text>
<rect x="147" y="455" width="78" height="78" rx="4" fill="#ff796e" fill-opacity="0.120"/>
<text x="186.0" y="492.0" text-anchor="middle" class="value">0</text>
<text x="186.0" y="511.0" text-anchor="middle" class="muted small">0.0%</text>
<rect x="229" y="455" width="78" height="78" rx="4" fill="#ff796e" fill-opacity="0.126"/>
<text x="268.0" y="492.0" text-anchor="middle" class="value">48</text>
<text x="268.0" y="511.0" text-anchor="middle" class="muted small">2.5%</text>
<rect x="311" y="455" width="78" height="78" rx="4" fill="#ff796e" fill-opacity="0.120"/>
<text x="350.0" y="492.0" text-anchor="middle" class="value">0</text>
<text x="350.0" y="511.0" text-anchor="middle" class="muted small">0.0%</text>
<rect x="393" y="455" width="78" height="78" rx="4" fill="#ff796e" fill-opacity="0.120"/>
<text x="432.0" y="492.0" text-anchor="middle" class="value">0</text>
<text x="432.0" y="511.0" text-anchor="middle" class="muted small">0.0%</text>
<rect x="475" y="455" width="78" height="78" rx="4" fill="#35d0ad" fill-opacity="0.337"/>
<text x="514.0" y="492.0" text-anchor="middle" class="value">1880</text>
<text x="514.0" y="511.0" text-anchor="middle" class="muted small">97.5%</text>
<text x="28" y="588" class="muted small">Macro-F1 0.9853 · Healthy false alarms 0.0/h</text>
<text x="28" y="609" class="muted small">Simulation-based; train/validation/test profiles are disjoint.</text>
</svg>